<?xml version="1.0" encoding="utf-8"?>
<svg viewBox="4.644 4.727 54.626 54.496" x="0px" y="0px" xmlns="http://www.w3.org/2000/svg">
  <g class="play">
    <path d="M 44.311 31.856 C 44.305 31.81 44.297 31.765 44.286 31.72 C 44.276 31.67 44.269 31.62 44.255 31.57 C 44.241 31.52 44.226 31.496 44.211 31.458 C 44.19 31.402 44.167 31.347 44.14 31.294 C 44.14 31.286 44.134 31.278 44.13 31.271 C 44.114 31.242 44.093 31.219 44.075 31.192 C 44.045 31.142 44.011 31.095 43.975 31.049 C 43.943 31.01 43.906 30.975 43.875 30.94 C 43.844 30.905 43.811 30.874 43.775 30.84 C 43.726 30.8 43.673 30.764 43.619 30.731 C 43.596 30.717 43.576 30.698 43.552 30.684 L 25.91 20.878 C 24.911 20.322 23.682 21.044 23.681 22.188 L 23.681 41.812 C 23.682 42.956 24.911 43.678 25.91 43.122 L 43.549 33.311 L 43.558 33.304 C 43.576 33.294 43.591 33.28 43.609 33.269 C 43.695 33.216 43.774 33.154 43.847 33.085 C 43.872 33.062 43.896 33.037 43.918 33.011 C 43.987 32.937 44.047 32.856 44.099 32.77 C 44.108 32.755 44.121 32.745 44.13 32.729 C 44.139 32.713 44.136 32.714 44.14 32.706 C 44.167 32.653 44.19 32.598 44.211 32.542 C 44.226 32.504 44.243 32.468 44.255 32.43 C 44.267 32.392 44.276 32.33 44.286 32.28 C 44.297 32.235 44.305 32.19 44.311 32.144 C 44.314 32.048 44.314 31.952 44.311 31.856 Z M 26.681 32 L 26.681 24.739 L 39.734 32 L 26.681 39.261 L 26.681 32 Z" style="stroke-miterlimit: 10; stroke: rgb(255, 255, 255);"/>
  </g>
</svg>